<?xml version="1.0" standalone="no"?>
<!DOCTYPE svg PUBLIC "-//W3C//DTD SVG 20010904//EN"
 "http://www.w3.org/TR/2001/REC-SVG-20010904/DTD/svg10.dtd">
<svg version="1.0" xmlns="http://www.w3.org/2000/svg"
 width="500.000000pt" height="500.000000pt" viewBox="0 0 500.000000 500.000000"
 preserveAspectRatio="xMidYMid meet">

<g transform="translate(0.000000,500.000000) scale(0.100000,-0.100000)"
fill="#000000" stroke="none">
<path d="M2486 4887 c-5 -20 -6 -20 -24 -4 -23 21 -67 21 -207 2 -138 -20
-155 -24 -155 -41 0 -11 -5 -11 -24 -3 -25 12 -109 -8 -286 -68 -95 -32 -107
-39 -115 -63 -8 -24 -22 -26 -27 -4 -4 20 -238 -96 -380 -188 -82 -53 -95 -65
-81 -74 21 -13 9 -34 -19 -34 -14 0 -18 5 -14 15 7 19 -4 13 -89 -49 -36 -26
-59 -50 -59 -60 1 -11 -4 -16 -17 -14 -19 3 -139 -106 -139 -127 0 -6 -10 -15
-22 -20 -51 -22 -298 -359 -278 -379 15 -15 12 -26 -8 -26 -26 0 -33 -10 -19
-25 10 -10 15 -9 25 6 16 23 32 25 32 4 0 -24 -45 -48 -68 -36 -18 10 -25 0
-76 -101 -46 -91 -54 -113 -43 -122 22 -17 27 -43 12 -56 -10 -9 -15 -4 -21
22 l-7 33 -9 -39 c-5 -22 -13 -46 -20 -53 -22 -27 -18 -80 7 -107 26 -28 45
-32 75 -16 13 7 21 6 30 -5 17 -20 31 -19 23 3 -5 12 3 8 27 -12 19 -15 35
-24 36 -20 1 5 5 22 8 37 5 21 11 27 24 23 13 -5 22 6 39 49 11 30 17 55 12
55 -17 0 -9 21 20 48 16 15 33 36 39 48 10 19 9 21 -13 16 -19 -3 -25 0 -25
13 0 13 6 15 28 11 25 -6 30 -1 79 80 40 65 51 90 43 103 -8 14 -9 13 -10 -6
0 -14 -6 -23 -15 -23 -8 0 -15 6 -15 13 0 21 34 48 57 45 14 -2 37 19 81 72
l61 75 -27 22 c-21 18 -24 25 -15 34 10 10 17 9 31 -4 10 -9 23 -17 28 -17 5
0 41 32 79 71 82 82 207 190 285 245 30 22 55 46 55 54 0 9 10 15 25 16 27 1
100 41 100 54 0 4 14 10 30 14 17 3 30 12 30 20 0 15 -16 16 -37 3 -7 -4 -18
2 -27 15 -19 27 -14 33 14 18 18 -10 24 -9 32 1 7 11 11 11 15 2 2 -7 11 -13
19 -13 8 0 14 -4 14 -9 0 -5 9 -7 20 -4 11 3 20 12 20 20 0 8 4 12 10 8 13 -8
83 23 76 34 -3 5 2 7 13 4 27 -7 34 11 11 32 -11 10 -20 14 -20 10 0 -4 -9 0
-20 10 -19 17 -21 16 -68 -34 -26 -28 -51 -51 -55 -51 -4 0 -7 11 -7 25 0 16
-6 25 -15 25 -8 0 -15 7 -15 16 0 12 8 14 45 8 38 -5 45 -4 45 10 0 13 -4 15
-19 7 -18 -10 -31 -6 -31 11 0 4 6 8 14 8 8 0 16 5 18 12 3 7 11 9 24 3 36
-15 55 -15 61 1 3 9 12 13 22 8 34 -15 124 -14 146 0 13 8 26 12 30 8 4 -4 12
-7 18 -7 7 -1 11 -6 9 -13 -4 -20 23 -24 59 -8 20 8 27 15 17 15 -11 1 -18 9
-18 21 0 26 14 25 33 -2 l16 -23 1 25 1 25 19 -24 c16 -19 21 -20 26 -8 4 12
15 14 41 10 30 -5 39 -2 53 17 15 20 21 22 33 12 12 -10 16 -6 22 30 4 24 7
57 6 75 -3 44 14 73 42 70 16 -1 26 6 37 30 15 32 77 63 99 49 21 -13 11 -41
-20 -56 -41 -20 -39 -33 8 -44 47 -11 49 -12 34 -29 -9 -12 -6 -16 19 -20 27
-6 43 -27 20 -27 -5 0 -10 -7 -10 -15 0 -8 -9 -19 -20 -25 -35 -19 -22 -30 36
-30 l55 0 -20 26 c-11 15 -18 31 -15 36 7 11 53 -17 72 -44 11 -15 27 -18 87
-18 45 0 77 5 81 12 5 8 10 7 18 -4 16 -21 167 -39 184 -21 15 15 32 17 32 5
0 -4 -5 -13 -10 -18 -7 -7 -1 -11 20 -11 25 0 29 4 24 19 -4 14 0 18 22 18 22
0 25 2 14 15 -7 9 -21 13 -34 9 -14 -3 -32 3 -48 15 -14 12 -33 21 -42 21 -19
0 -21 11 -3 29 10 10 9 14 -5 22 -10 5 -15 16 -12 24 4 9 0 15 -9 15 -8 0 -17
-13 -21 -32 -3 -17 -12 -39 -20 -47 -8 -9 -16 -25 -17 -35 -5 -25 -32 -41 -55
-32 -18 7 -18 8 2 24 27 21 47 59 35 66 -5 3 -12 -5 -15 -19 -7 -28 -13 -29
-49 -16 -22 8 -24 7 -20 -10 6 -20 -20 -28 -32 -10 -10 18 17 60 38 58 11 -1
22 3 24 9 2 7 -6 10 -22 6 -24 -4 -25 -2 -20 21 4 14 2 34 -4 45 -9 18 -6 21
32 30 50 13 74 0 43 -24 -11 -8 -26 -14 -34 -14 -9 0 -12 -6 -8 -16 3 -9 6
-18 6 -20 0 -13 24 0 55 30 33 33 47 54 25 41 -5 -3 -10 -1 -10 4 0 6 9 11 21
11 18 0 20 -4 15 -25 -4 -14 -4 -25 -1 -25 12 0 75 56 75 66 0 23 -209 45
-234 25 -12 -10 -20 -9 -39 4 -18 11 -46 15 -105 14 -72 -1 -81 -3 -86 -22z
m40 -55 c-10 -10 -29 15 -21 28 6 9 10 8 17 -4 6 -10 7 -20 4 -24z m164 14 c0
-8 -4 -18 -10 -21 -5 -3 -10 -15 -10 -25 0 -20 -37 -47 -48 -35 -3 3 -1 15 6
25 7 11 12 28 12 39 0 17 12 25 43 30 4 0 7 -5 7 -13z m-530 -15 c0 -5 -7 -11
-15 -15 -15 -5 -20 5 -8 17 9 10 23 9 23 -2z m-110 -27 c0 -9 -5 -14 -12 -12
-18 6 -21 28 -4 28 9 0 16 -7 16 -16z m-170 -75 c0 -7 -53 -20 -59 -13 -2 2 4
16 14 30 17 26 18 27 31 9 8 -10 14 -22 14 -26z m110 1 c0 -5 -7 -10 -15 -10
-8 0 -15 5 -15 10 0 6 7 10 15 10 8 0 15 -4 15 -10z m143 -4 c3 -8 3 -17 0
-20 -7 -7 -33 13 -33 25 0 15 27 10 33 -5z m567 4 c0 -5 -2 -10 -4 -10 -3 0
-8 5 -11 10 -3 6 -1 10 4 10 6 0 11 -4 11 -10z m-130 -4 c0 -3 -4 -8 -10 -11
-5 -3 -10 -1 -10 4 0 6 5 11 10 11 6 0 10 -2 10 -4z m-720 -55 c25 -48 -5 -58
-32 -11 -16 29 -16 30 2 30 11 0 24 -9 30 -19z m814 4 c-7 -16 -30 -20 -38 -6
-7 11 4 21 25 21 12 0 16 -5 13 -15z m224 -8 c2 -10 -3 -17 -12 -17 -10 0 -16
9 -16 21 0 24 23 21 28 -4z m-1256 -12 c9 -21 8 -33 -6 -62 -13 -27 -20 -33
-26 -23 -5 7 -15 10 -25 6 -21 -8 -69 20 -60 34 4 6 15 10 26 10 10 0 19 7 19
15 0 18 12 19 28 3 9 -9 12 -6 12 15 0 34 17 35 32 2z m1318 5 c0 -15 -7 -20
-25 -20 -14 0 -25 5 -25 10 0 6 9 10 20 10 11 0 20 5 20 10 0 6 2 10 5 10 3 0
5 -9 5 -20z m-1250 -19 c0 -14 -18 -23 -30 -16 -6 4 -8 11 -5 16 8 12 35 12
35 0z m270 -6 c14 -17 4 -55 -15 -55 -17 0 -27 27 -20 51 8 23 18 24 35 4z
m70 5 c0 -5 -4 -10 -10 -10 -5 0 -10 5 -10 10 0 6 5 10 10 10 6 0 10 -4 10
-10z m-220 -20 c0 -5 -4 -10 -10 -10 -5 0 -10 5 -10 10 0 6 5 10 10 10 6 0 10
-4 10 -10z m-460 -86 c0 -16 -16 -19 -25 -4 -8 13 4 32 16 25 5 -4 9 -13 9
-21z m125 -24 c4 -6 -5 -10 -19 -10 -14 0 -26 5 -26 10 0 6 9 10 19 10 11 0
23 -4 26 -10z m-85 -108 c0 -5 -6 -16 -12 -25 -10 -12 -17 -14 -28 -7 -13 9
-12 12 4 25 22 17 36 19 36 7z m65 -12 c3 -5 -3 -10 -14 -10 -12 0 -21 5 -21
10 0 6 6 10 14 10 8 0 18 -4 21 -10z m-315 -30 c-6 -10 -14 -21 -19 -25 -17
-10 -20 11 -5 34 18 26 39 19 24 -9z m130 0 c0 -5 -4 -10 -10 -10 -5 0 -10 5
-10 10 0 6 5 10 10 10 6 0 10 -4 10 -10z m140 -20 c0 -5 -7 -10 -15 -10 -8 0
-15 5 -15 10 0 6 7 10 15 10 8 0 15 -4 15 -10z m-215 -20 c0 -8 -10 -16 -22
-18 -22 -3 -32 16 -16 32 12 11 38 2 38 -14z m-107 -17 c6 -19 -25 -16 -32 3
-4 11 -1 14 11 12 9 -2 18 -9 21 -15z m158 -65 c-2 -32 -7 -44 -20 -46 -10 -2
-16 2 -15 10 1 7 -1 21 -6 31 -8 19 10 47 30 47 9 0 12 -13 11 -42z m-102 -3
c4 -11 -1 -15 -19 -15 -24 0 -32 10 -18 23 11 12 31 8 37 -8z m-90 -44 c3 -4
-1 -17 -9 -27 -13 -18 -14 -18 -20 -2 -5 14 -14 16 -34 11 -23 -6 -25 -5 -12
10 14 18 66 23 75 8z m-126 -75 c-22 -16 -23 -26 -4 -26 8 0 18 9 21 21 6 17
12 19 38 14 76 -15 86 -27 42 -47 -22 -10 -30 -26 -26 -51 1 -5 -10 -22 -24
-39 -14 -16 -25 -34 -25 -39 0 -6 -5 -7 -11 -4 -6 4 -8 13 -5 21 3 7 -2 17
-11 22 -21 12 -8 31 17 25 16 -4 19 -2 14 11 -7 18 -20 21 -29 6 -9 -15 -65
21 -65 42 0 10 5 18 10 18 6 0 10 6 10 14 0 22 42 48 55 35 7 -7 5 -14 -7 -23z
m-109 -42 c11 -4 10 -8 -4 -24 -14 -16 -15 -23 -6 -34 10 -12 9 -19 -8 -37
-11 -13 -26 -19 -35 -16 -21 8 -21 27 0 27 8 0 12 5 9 10 -3 6 -15 10 -26 10
-25 0 -24 16 1 30 11 6 20 17 20 24 0 13 24 18 49 10z m221 -34 c0 -5 -7 -10
-15 -10 -8 0 -15 5 -15 10 0 6 7 10 15 10 8 0 15 -4 15 -10z m-135 -71 c4 -6
5 -12 2 -15 -7 -7 -37 7 -37 17 0 13 27 11 35 -2z m-225 -38 c0 -14 -18 -23
-30 -16 -6 4 -8 11 -5 16 8 12 35 12 35 0z m210 -25 c0 -22 -26 -43 -38 -31
-8 8 16 55 28 55 5 0 10 -11 10 -24z m-50 -21 c0 -8 -4 -15 -9 -15 -13 0 -22
16 -14 24 11 11 23 6 23 -9z m38 -44 c3 -8 -1 -12 -9 -9 -7 2 -15 10 -17 17
-3 8 1 12 9 9 7 -2 15 -10 17 -17z m-255 -6 c4 -8 3 -16 -1 -19 -12 -7 -53 14
-47 24 9 15 42 12 48 -5z m153 -72 c3 -14 -3 -26 -16 -33 -25 -13 -56 24 -37
46 18 20 50 13 53 -13z m-46 -64 c0 -17 -4 -20 -22 -15 -13 3 -31 6 -40 6 -10
0 -18 7 -18 15 0 11 11 15 40 15 34 0 40 -3 40 -21z m-104 0 c7 -12 -15 -31
-28 -23 -9 6 1 34 12 34 5 0 12 -5 16 -11z m48 -55 c25 -10 19 -31 -10 -38
-37 -10 -56 10 -30 30 23 16 20 16 40 8z m-176 -79 c12 -36 8 -61 -6 -39 -4 6
-15 13 -24 17 -19 7 -25 27 -9 27 5 0 7 10 4 21 -10 39 21 15 35 -26z m105 17
c10 -10 14 -22 10 -25 -13 -13 -28 -6 -40 18 -14 31 5 35 30 7z m7 -71 c0 -5
9 -11 20 -14 24 -6 26 -25 4 -34 -10 -4 -22 1 -29 10 -7 10 -20 17 -29 17 -19
0 -22 16 -3 23 20 9 37 8 37 -2z m-90 -35 c0 -7 9 -16 20 -19 24 -6 26 -26 5
-53 -14 -19 -14 -18 -15 4 0 12 -6 22 -13 22 -23 0 -36 -22 -30 -51 5 -25 3
-27 -17 -22 -13 3 -25 14 -27 25 -3 10 -12 18 -19 18 -8 0 -14 3 -14 8 0 10
50 32 72 32 13 0 18 8 18 25 0 14 5 25 10 25 6 0 10 -6 10 -14z m75 -76 c3 -5
2 -10 -4 -10 -5 0 -13 5 -16 10 -3 6 -2 10 4 10 5 0 13 -4 16 -10z m-190 -10
c6 -9 -17 -40 -29 -40 -8 0 -7 35 1 43 9 10 21 9 28 -3z m5 -100 c0 -19 -11
-26 -23 -14 -8 8 3 34 14 34 5 0 9 -9 9 -20z"/>
<path d="M2975 4850 c-3 -5 -1 -18 4 -27 9 -16 10 -14 11 10 0 28 -5 34 -15
17z"/>
<path d="M3107 4831 c-3 -9 -8 -24 -12 -33 -5 -13 -2 -18 9 -18 9 0 25 -5 35
-12 20 -12 51 -5 51 12 0 7 -8 9 -20 5 -17 -5 -20 -2 -20 23 0 34 -35 52 -43
23z"/>
<path d="M3030 4806 c0 -2 7 -9 15 -16 9 -7 15 -8 15 -2 0 5 -7 12 -15 16 -8
3 -15 4 -15 2z"/>
<path d="M3250 4790 c-15 -28 -13 -30 16 -20 34 13 34 13 34 -10 0 -14 -7 -20
-21 -20 -12 0 -23 -8 -26 -20 -5 -20 -33 -29 -33 -10 0 6 -9 10 -20 10 -21 0
-28 -16 -10 -22 6 -2 8 -17 4 -36 -6 -32 -7 -32 -24 -14 -9 10 -21 31 -27 47
-11 33 -37 45 -46 20 -4 -9 -1 -15 8 -15 18 0 20 -27 3 -32 -10 -4 -10 -10 -1
-29 12 -24 12 -24 12 -1 1 28 31 30 31 2 0 -11 -5 -20 -10 -20 -6 0 -27 -7
-48 -16 -39 -16 -36 -23 16 -38 16 -6 22 -3 22 8 0 23 21 20 27 -4 3 -11 9
-20 14 -20 5 0 6 6 3 14 -3 7 2 16 10 19 9 4 16 13 16 22 0 15 19 22 21 8 3
-31 10 -46 25 -57 9 -7 14 -18 10 -24 -4 -7 7 -14 31 -18 20 -4 52 -16 70 -27
31 -18 35 -18 58 -3 29 19 68 21 63 4 -3 -7 -14 -18 -26 -24 -20 -10 -20 -10
8 -21 23 -9 30 -8 34 3 3 8 13 14 22 14 16 0 16 -1 0 -19 -16 -17 -15 -19 13
-31 17 -6 65 -32 107 -56 53 -30 81 -41 88 -34 16 16 29 11 23 -9 -4 -15 8
-29 51 -58 30 -21 64 -43 74 -49 11 -6 32 -23 47 -38 15 -14 33 -26 40 -26 19
0 82 -53 71 -60 -6 -4 3 -19 20 -35 16 -16 30 -23 30 -17 0 7 5 12 10 12 6 0
10 -11 10 -25 0 -22 3 -24 19 -15 26 13 31 13 31 -4 0 -18 20 -26 41 -15 14 7
15 16 8 46 -12 53 -11 56 11 50 10 -3 21 0 23 6 2 6 11 8 21 4 15 -6 16 -10 6
-22 -10 -12 -9 -16 4 -21 9 -3 16 -17 16 -30 0 -18 4 -22 18 -17 9 4 22 14 29
22 10 14 12 14 19 -3 7 -17 8 -17 25 5 20 26 25 44 9 34 -5 -3 -10 1 -10 10 0
8 -8 19 -17 22 -15 6 -14 7 3 13 13 5 5 9 -30 14 -31 5 -52 4 -59 -3 -14 -14
-57 -15 -57 -1 0 5 8 13 17 19 16 9 16 11 -2 32 -14 16 -16 23 -7 26 6 3 12
13 12 23 0 10 5 22 11 26 12 7 -37 53 -59 54 -7 0 -17 12 -23 26 -9 26 -10 26
-24 8 -14 -18 -14 -18 -15 6 0 27 -72 96 -89 86 -5 -3 -23 1 -40 10 -31 16
-44 31 -16 20 8 -3 15 -2 15 3 0 12 -46 41 -65 41 -8 0 -15 5 -15 10 0 6 -14
19 -32 30 -24 14 -35 16 -45 8 -16 -13 -29 -2 -35 27 -2 11 -12 21 -23 23 -11
2 -25 9 -30 17 -15 18 -151 85 -175 85 -11 0 -20 4 -20 8 0 5 -24 8 -53 8 -52
-1 -53 -1 -49 -29 3 -15 0 -27 -4 -26 -30 5 -52 -3 -57 -22 -5 -19 -11 -21
-41 -16 -28 4 -34 3 -29 -9 3 -9 -2 -14 -15 -14 -26 0 -34 23 -16 49 14 20 14
20 -16 15 -22 -5 -30 -3 -30 8 0 17 33 50 46 47 25 -4 44 3 44 16 0 17 9 19
30 5 9 -5 19 -5 27 2 19 15 29 2 13 -17 -10 -13 -9 -15 8 -15 16 0 20 6 20 29
-1 32 -24 45 -52 29 -21 -12 -46 -4 -46 15 0 8 -16 18 -35 24 -31 10 -37 9
-45 -7z m220 -164 c0 -13 -39 -30 -49 -21 -5 6 29 34 42 35 4 0 7 -6 7 -14z
m160 -1 c0 -8 -7 -15 -15 -15 -16 0 -20 12 -8 23 11 12 23 8 23 -8z m78 -14
c3 -8 -1 -12 -9 -9 -7 2 -15 10 -17 17 -3 8 1 12 9 9 7 -2 15 -10 17 -17z
m-301 -20 c4 -16 12 -18 46 -14 l42 4 -30 -17 c-16 -9 -42 -27 -56 -41 -23
-21 -27 -22 -33 -7 -3 9 -1 23 5 30 6 8 8 25 5 39 -4 15 -2 25 5 25 6 0 13 -9
16 -19z m233 -15 c0 -14 4 -27 10 -31 11 -6 2 -35 -11 -35 -15 0 -30 39 -23
65 8 32 24 33 24 1z m-108 -1 c0 -5 -5 -11 -11 -13 -6 -2 -11 4 -11 13 0 9 5
15 11 13 6 -2 11 -8 11 -13z m161 -35 c-3 -11 -9 -20 -14 -20 -10 0 -12 33 -3
43 12 12 22 -3 17 -23z m77 -36 c0 -31 -23 -28 -28 4 -2 15 2 22 12 22 11 0
16 -9 16 -26z m-134 -16 c8 -13 -49 -68 -71 -68 -23 0 -18 16 10 34 14 9 25
23 25 31 0 18 26 20 36 3z m301 -42 c-2 -6 -11 -11 -20 -11 -8 0 -19 -4 -23
-8 -8 -8 -34 10 -34 24 0 5 18 8 40 7 24 -1 39 -6 37 -12z m-167 -35 c0 -31
-15 -50 -22 -29 -6 18 3 58 13 58 5 0 9 -13 9 -29z m145 -22 c21 -41 14 -46
-25 -18 -29 22 -30 25 -14 36 23 17 21 18 39 -18z m-185 -26 c0 -14 -6 -23
-15 -23 -22 0 -29 24 -15 51 10 17 14 19 21 8 5 -8 9 -24 9 -36z m100 35 c-1
-20 -57 -71 -70 -63 -14 9 6 35 26 35 8 0 14 9 14 20 0 11 7 20 15 20 8 0 15
-6 15 -12z m179 -85 c0 -10 -4 -26 -8 -36 -6 -17 -8 -17 -20 -4 -9 12 -10 21
-1 36 13 26 30 27 29 4z m71 7 c0 -5 -9 -10 -21 -10 -11 0 -17 5 -14 10 3 6
13 10 21 10 8 0 14 -4 14 -10z m4 -35 c3 -8 13 -15 23 -15 15 0 14 -3 -5 -22
l-23 -23 -20 24 c-15 18 -17 27 -8 37 15 18 25 18 33 -1z m-200 -11 c22 -9 10
-24 -20 -24 -23 0 -31 10 -17 23 8 9 17 9 37 1z m256 -74 c0 -20 -25 -38 -37
-26 -5 5 24 46 34 46 1 0 3 -9 3 -20z m44 -11 c-10 -16 -24 -9 -24 12 0 18 2
19 15 9 8 -7 12 -16 9 -21z m-34 -74 c0 -9 7 -18 15 -21 19 -8 20 -64 1 -64
-8 0 -17 12 -21 27 -6 24 -8 26 -16 10 -13 -23 -29 -22 -29 2 0 14 -5 18 -20
14 -12 -3 -20 0 -20 7 0 8 12 10 35 7 29 -4 35 -2 35 14 0 10 5 19 10 19 6 0
10 -7 10 -15z"/>
<path d="M2942 4778 c3 -7 13 -15 24 -17 16 -3 17 -1 5 13 -16 19 -34 21 -29
4z"/>
<path d="M2276 4705 c-9 -14 -13 -25 -8 -25 5 0 19 11 32 25 18 19 20 25 8 25
-9 0 -23 -11 -32 -25z"/>
<path d="M3010 4708 c0 -18 2 -19 18 -7 9 7 18 14 20 15 1 1 -6 4 -18 7 -15 4
-20 0 -20 -15z"/>
<path d="M1910 4540 c0 -5 5 -10 10 -10 6 0 10 5 10 10 0 6 -4 10 -10 10 -5 0
-10 -4 -10 -10z"/>
<path d="M2528 4303 c-42 -3 -58 -8 -58 -18 0 -11 13 -15 50 -15 l50 0 0 -160
c0 -154 1 -160 20 -160 12 0 20 6 19 13 -1 6 -1 78 0 160 l1 147 50 0 c38 0
50 4 50 15 0 11 -12 15 -49 15 -27 0 -55 1 -63 3 -7 2 -39 1 -70 0z"/>
<path d="M2262 4280 c-29 -4 -55 -10 -56 -11 -4 -5 62 -341 68 -347 3 -2 11
-2 19 1 12 4 12 16 2 71 l-13 66 30 0 c46 0 95 26 112 59 36 69 8 141 -62 161
-20 5 -39 9 -42 9 -3 -1 -29 -5 -58 -9z m104 -38 c17 -11 34 -48 34 -72 0 -50
-90 -102 -117 -67 -12 14 -32 135 -25 142 8 8 96 6 108 -3z"/>
<path d="M2010 4221 c-59 -19 -84 -32 -83 -42 2 -7 27 -81 57 -164 60 -168 49
-158 154 -130 47 13 62 22 62 36 0 17 -2 17 -65 -1 -36 -10 -67 -15 -70 -9 -3
5 -14 33 -25 64 l-19 55 45 11 c42 11 65 31 51 46 -3 3 -27 -2 -53 -11 -26 -9
-49 -16 -50 -16 -4 0 -34 93 -34 106 0 8 31 22 71 34 40 12 69 26 67 32 -7 19
-19 18 -108 -11z"/>
<path d="M3124 4189 c3 -16 11 -71 17 -121 10 -83 9 -94 -11 -148 -20 -55 -21
-80 0 -80 4 0 19 28 33 63 21 54 36 72 111 137 47 41 87 80 88 85 5 29 -37 9
-98 -44 -38 -34 -71 -61 -75 -61 -3 0 -10 37 -14 82 -7 90 -17 118 -42 118
-12 0 -14 -7 -9 -31z"/>
<path d="M4280 4182 c0 -14 11 -27 30 -37 17 -9 30 -12 30 -7 0 4 -13 21 -30
37 -29 27 -30 28 -30 7z"/>
<path d="M1760 4134 c-50 -21 -69 -42 -81 -87 -14 -54 3 -119 47 -180 64 -88
136 -110 207 -62 35 24 45 43 31 58 -4 4 -22 -7 -41 -23 -18 -17 -44 -30 -56
-30 -65 0 -146 108 -150 199 -2 61 26 96 86 108 48 10 63 33 20 33 -15 -1 -44
-8 -63 -16z"/>
<path d="M3424 4051 c-69 -42 -124 -144 -124 -231 0 -55 40 -100 88 -100 94 0
202 125 202 233 0 49 -19 81 -60 102 -39 20 -69 19 -106 -4z m108 -38 c44 -39
8 -155 -70 -223 -77 -69 -128 -51 -120 43 6 65 29 114 75 161 41 40 84 48 115
19z"/>
<path d="M4450 3985 c0 -22 -4 -24 -23 -20 -14 4 -28 1 -35 -8 -10 -12 -7 -15
17 -20 26 -5 29 -10 28 -42 -1 -19 -6 -35 -11 -35 -21 0 -37 18 -34 36 2 14
-2 18 -15 16 -27 -5 -47 16 -47 49 0 16 -4 29 -10 29 -5 0 -10 -4 -10 -10 0
-5 -16 -16 -35 -24 -36 -15 -45 -31 -22 -39 9 -3 9 -7 -2 -20 -12 -15 -11 -17
8 -17 12 0 21 -6 21 -16 0 -11 6 -14 20 -9 24 8 25 -1 6 -46 -12 -28 -12 -37
-2 -52 7 -9 18 -17 25 -17 6 0 11 -7 11 -15 0 -22 51 -96 61 -89 5 3 9 16 9
30 0 18 4 23 13 17 6 -4 20 -6 30 -4 25 4 19 -30 -8 -44 -16 -8 -18 -14 -10
-32 5 -13 13 -23 17 -23 5 0 8 -11 8 -25 0 -14 7 -28 16 -32 10 -4 14 -13 10
-27 -3 -12 5 -41 20 -71 22 -45 28 -50 59 -51 19 0 35 3 35 8 0 4 7 8 15 8 8
0 15 6 15 13 0 8 8 21 18 30 17 15 19 14 42 -13 29 -36 44 -37 64 -8 12 17 18
19 29 9 22 -17 28 -51 11 -58 -19 -7 -18 -23 1 -23 20 0 20 -3 -12 -59 -2 -2
-9 1 -17 8 -11 9 -15 7 -19 -8 -3 -11 1 -25 9 -32 20 -16 17 -39 -3 -39 -10 0
-30 -6 -45 -14 -24 -13 -28 -12 -40 6 -13 20 -14 20 -26 -6 -10 -23 -10 -26 9
-26 19 0 19 0 -1 -29 -19 -25 -20 -32 -10 -71 9 -32 14 -40 21 -29 5 8 9 22 9
31 0 23 20 34 31 17 13 -21 11 -39 -6 -39 -13 0 -13 -3 -3 -20 17 -27 37 -25
48 5 8 21 16 25 49 25 39 0 68 20 56 39 -3 6 0 21 7 33 7 13 18 37 24 55 l11
32 -46 3 c-53 3 -58 22 -6 26 33 3 48 23 26 37 -5 3 -9 18 -9 33 0 15 -12 52
-26 83 -23 48 -30 56 -48 51 -19 -5 -21 -2 -15 26 8 38 0 44 -32 28 -15 -9
-20 -16 -12 -20 16 -10 14 -26 -4 -26 -8 0 -15 4 -15 9 0 5 -11 12 -25 15 -27
7 -24 39 4 34 9 -1 29 6 44 16 26 18 27 20 11 37 -9 10 -14 22 -11 26 7 12
-68 145 -76 137 -4 -4 -2 -13 4 -20 7 -8 7 -14 -1 -19 -7 -4 -19 3 -27 15 -11
16 -18 19 -23 10 -4 -7 -13 -9 -19 -6 -17 11 -13 41 7 59 15 13 21 14 32 4 7
-6 4 4 -7 23 -12 19 -31 39 -42 45 -12 5 -21 17 -21 27 0 32 -12 48 -36 48
-25 0 -31 9 -14 26 6 6 1 19 -16 37 -31 33 -34 33 -34 2z m-22 -174 c-1 -35
-4 -38 -30 -39 -18 0 -28 4 -28 14 0 8 -10 14 -26 14 -15 0 -23 4 -19 10 4 6
16 8 27 4 14 -4 24 1 34 15 25 35 44 27 42 -18z m69 -10 c8 -11 12 -12 13 -3
0 17 30 15 30 -3 0 -8 -9 -19 -21 -26 -17 -9 -24 -7 -39 9 -11 11 -24 22 -31
24 -7 2 -9 9 -5 16 8 13 36 4 53 -17z m81 12 c-5 -25 -28 -28 -28 -4 0 12 6
21 16 21 9 0 14 -7 12 -17z m-125 -59 c9 -10 -4 -34 -19 -34 -16 0 -16 2 -8
24 6 17 16 20 27 10z m52 -44 c0 -7 -6 -15 -12 -17 -8 -3 -13 4 -13 17 0 13 5
20 13 18 6 -3 12 -11 12 -18z m30 -30 c7 -12 -12 -50 -25 -50 -11 0 -14 43 -3
53 9 10 21 9 28 -3z m143 -40 c14 -23 8 -40 -12 -40 -8 0 -16 14 -18 30 -5 35
11 40 30 10z m-93 -48 c0 -18 -20 -15 -23 4 -3 10 1 15 10 12 7 -3 13 -10 13
-16z m-84 -45 c-1 -12 -15 -9 -19 4 -3 6 1 10 8 8 6 -3 11 -8 11 -12z m74 -17
c27 0 31 -11 15 -41 -11 -19 -40 -27 -40 -9 0 5 -10 18 -22 29 -18 17 -19 23
-8 36 12 15 14 15 22 1 5 -9 20 -16 33 -16z m210 -350 c3 -5 1 -19 -5 -30 -13
-25 -2 -27 16 -3 17 24 27 12 18 -22 -8 -34 -29 -42 -53 -21 -10 9 -23 16 -29
16 -17 0 -15 31 5 52 18 20 38 23 48 8z"/>
<path d="M1511 3987 c-8 -11 4 -36 57 -113 37 -54 72 -105 77 -113 9 -15 9
-15 -55 24 -66 41 -191 105 -204 105 -7 0 -21 -9 -30 -19 -17 -19 -14 -24 94
-150 61 -72 115 -131 120 -131 28 0 12 32 -65 126 -48 58 -84 108 -81 111 6 6
178 -84 234 -122 26 -18 40 -22 53 -14 18 9 -7 55 -159 287 -17 25 -25 27 -41
9z"/>
<path d="M3675 3853 c-93 -118 -125 -173 -125 -216 0 -91 95 -128 176 -68 21
16 73 63 114 105 66 68 73 78 59 91 -13 14 -26 4 -120 -90 -87 -87 -110 -105
-135 -105 -18 0 -38 8 -49 20 -30 33 -13 76 79 190 60 76 81 108 74 118 -17
20 -26 15 -73 -45z"/>
<path d="M2217 3713 c-48 -77 -136 -233 -222 -393 -94 -176 -136 -244 -184
-300 -26 -29 -32 -33 -41 -20 -29 44 9 318 70 494 24 70 20 84 -9 28 -45 -89
-101 -337 -101 -449 0 -70 12 -93 51 -93 25 0 37 10 76 65 26 35 98 162 161
282 138 265 205 380 210 365 2 -7 -17 -85 -43 -175 -80 -278 -106 -419 -112
-606 -5 -136 -3 -163 8 -159 11 3 16 38 20 139 9 185 21 255 95 550 64 255 73
309 54 309 -5 0 -20 -17 -33 -37z"/>
<path d="M1194 3724 c-35 -17 -64 -61 -64 -98 0 -128 225 -261 305 -181 64 63
-11 221 -130 276 -49 22 -71 23 -111 3z m131 -62 c43 -31 105 -123 105 -156 0
-27 -29 -56 -54 -56 -33 1 -108 38 -144 73 -123 118 -44 236 93 139z"/>
<path d="M3880 3574 c-153 -138 -156 -142 -143 -155 9 -9 24 -2 61 30 28 22
53 41 56 41 10 0 7 -45 -9 -121 -11 -51 -12 -76 -5 -83 16 -16 26 6 40 81 7
35 13 63 15 63 1 0 16 -7 31 -15 37 -19 50 -19 100 4 79 36 81 110 7 203 -21
26 -40 47 -43 47 -3 0 -52 -43 -110 -95z m148 3 c12 -18 22 -45 22 -58 0 -30
-34 -65 -73 -74 -31 -8 -69 12 -88 47 -11 20 -7 27 42 70 30 26 59 48 64 48 6
0 20 -15 33 -33z"/>
<path d="M2673 3618 c-42 -46 -123 -248 -139 -348 -4 -27 -30 -70 -88 -146
-44 -59 -87 -109 -93 -112 -21 -6 -15 44 17 140 28 84 32 115 11 92 -11 -12
-60 -173 -62 -204 -2 -43 0 -50 19 -50 22 0 64 43 124 127 25 35 47 61 50 58
2 -2 0 -40 -4 -84 -5 -46 -5 -100 1 -128 l9 -48 1 60 c2 67 28 135 68 178 15
15 21 27 15 27 -7 0 -25 -18 -41 -40 -15 -21 -30 -37 -33 -35 -2 3 -1 34 3 71
7 52 17 78 49 127 66 101 134 247 134 291 1 47 -13 55 -41 24z m32 -31 c-9
-49 -139 -304 -143 -281 -4 29 71 238 103 285 29 45 49 43 40 -4z"/>
<path d="M1011 3504 c-59 -49 -77 -115 -46 -173 33 -65 143 -131 217 -131 61
0 128 61 128 118 0 32 -26 27 -33 -7 -19 -94 -155 -94 -244 0 -62 66 -62 114
-1 171 43 40 24 60 -21 22z"/>
<path d="M2298 3343 c-9 -10 -23 -36 -32 -57 -17 -41 -9 -66 22 -66 8 0 13 3
9 6 -3 4 5 28 18 55 14 27 25 55 25 64 0 20 -23 19 -42 -2z m26 -15 c-3 -13
-13 -36 -22 -53 -22 -44 -28 -12 -7 36 19 42 41 54 29 17z"/>
<path d="M4583 3342 c-11 -15 -13 -15 -22 -2 -9 13 -11 13 -11 -2 0 -9 5 -28
11 -40 8 -19 18 -24 47 -24 20 1 48 -3 62 -8 20 -7 23 -6 13 5 -19 19 -16 33
9 44 13 6 24 18 26 28 3 15 -2 14 -34 -8 -21 -14 -45 -24 -53 -23 -9 1 -21 -1
-28 -5 -17 -11 -27 11 -12 29 6 8 10 16 8 19 -3 2 -10 -4 -16 -13z"/>
<path d="M2996 3288 c-3 -13 -6 -36 -6 -51 0 -30 -27 -83 -92 -178 -85 -126
-97 -95 -47 120 11 46 17 86 14 89 -3 3 -13 -2 -23 -11 -10 -10 -29 -17 -41
-17 -13 0 -45 -20 -73 -45 -53 -47 -72 -55 -82 -30 -3 8 -11 15 -18 15 -9 0
-9 -3 0 -12 20 -20 14 -39 -28 -84 -43 -47 -51 -74 -21 -74 25 0 67 51 76 90
7 32 46 63 53 41 8 -25 47 -9 89 36 47 52 50 50 29 -17 -7 -25 -17 -72 -21
-106 -5 -49 -4 -63 9 -73 25 -21 58 8 112 98 27 44 51 78 54 76 3 -2 2 -48 -2
-102 -7 -98 -3 -163 12 -163 4 0 25 53 46 118 22 64 43 116 49 115 5 -1 13
-15 17 -31 13 -50 38 -49 86 3 23 26 52 61 63 79 12 17 -8 0 -44 -39 -36 -38
-67 -68 -70 -65 -3 3 -12 22 -20 43 -9 20 -20 37 -25 37 -19 0 -42 -39 -63
-105 -30 -101 -41 -104 -35 -10 17 258 18 310 2 253z m-186 -65 c-1 -14 -50
-65 -60 -61 -15 5 27 68 45 68 8 0 15 -3 15 -7z m-189 -161 c-12 -23 -41 -48
-41 -35 0 5 7 19 16 31 19 27 39 30 25 4z"/>
<path d="M570 3245 c0 -8 2 -15 4 -15 2 0 6 7 10 15 3 8 1 15 -4 15 -6 0 -10
-7 -10 -15z"/>
<path d="M2325 3230 c-13 -6 -15 -9 -5 -9 8 0 22 4 30 9 18 12 2 12 -25 0z"/>
<path d="M268 3195 c-3 -14 -1 -25 3 -25 15 0 10 -48 -6 -64 -8 -8 -15 -19
-15 -24 0 -6 -6 -13 -12 -16 -10 -5 -10 -7 0 -12 17 -8 15 -37 -2 -31 -8 3
-17 -1 -20 -9 -4 -10 3 -16 24 -21 17 -3 30 -12 30 -19 0 -8 5 -14 10 -14 6 0
10 -7 10 -16 0 -13 5 -12 26 5 15 12 34 21 43 21 13 0 13 2 2 9 -7 5 -11 13
-7 19 3 6 2 13 -4 17 -5 3 -10 15 -10 26 0 10 -4 19 -10 19 -5 0 -10 -5 -10
-11 0 -5 -5 -7 -11 -3 -8 5 -8 9 1 14 8 5 10 18 6 34 -4 16 -2 26 5 26 18 0
41 -30 35 -45 -3 -8 3 -20 13 -27 10 -7 20 -19 22 -27 6 -17 49 -23 49 -7 -1
16 -33 52 -53 60 -13 4 -16 12 -12 26 8 24 -15 50 -44 50 -11 0 -23 5 -26 10
-3 6 1 10 9 10 10 0 16 9 16 25 0 21 -5 25 -29 25 -23 0 -30 -5 -33 -25z"/>
<path d="M508 3169 c-21 -12 -24 -35 -5 -42 8 -3 3 -14 -15 -33 -19 -21 -25
-33 -18 -44 5 -9 5 -19 -1 -26 -7 -8 -6 -14 1 -19 20 -12 10 -25 -20 -25 -23
0 -30 -4 -30 -20 0 -23 18 -27 26 -6 3 8 11 13 17 10 22 -7 38 12 48 57 7 30
7 45 0 47 -6 2 -11 11 -11 19 0 9 6 13 15 9 16 -6 32 35 20 53 -3 6 -1 11 4
11 6 0 11 5 11 10 0 13 -20 12 -42 -1z"/>
<path d="M4900 3096 c-13 -36 -13 -36 10 -36 17 0 19 4 14 28 -9 38 -12 39
-24 8z"/>
<path d="M4670 2998 c0 -9 5 -20 10 -23 13 -8 13 5 0 25 -8 13 -10 13 -10 -2z"/>
<path d="M4800 2981 c0 -5 9 -11 20 -14 11 -3 20 -12 20 -21 0 -11 9 -16 30
-16 20 0 30 5 30 15 0 10 -10 15 -31 15 -24 0 -30 4 -25 15 4 11 -1 15 -19 15
-14 0 -25 -4 -25 -9z"/>
<path d="M4700 2960 c0 -5 9 -10 21 -10 11 0 17 5 14 10 -3 6 -13 10 -21 10
-8 0 -14 -4 -14 -10z"/>
<path d="M200 2950 c0 -5 11 -10 25 -10 14 0 25 5 25 10 0 6 -11 10 -25 10
-14 0 -25 -4 -25 -10z"/>
<path d="M4767 2945 c-4 -8 -2 -17 2 -20 5 -2 11 4 14 15 6 23 -8 27 -16 5z"/>
<path d="M252 2907 c-12 -13 -22 -28 -22 -35 0 -6 -12 -22 -27 -36 -23 -22
-25 -26 -10 -32 9 -3 28 1 42 10 29 19 35 20 35 4 0 -7 13 -13 30 -14 16 -1
28 2 25 5 -2 4 0 12 4 19 5 9 13 9 34 -1 27 -12 42 -43 26 -53 -16 -9 -10 -19
21 -32 17 -8 30 -18 30 -23 0 -6 -5 -7 -12 -3 -7 4 -32 7 -56 5 -49 -3 -82 18
-82 53 0 24 -15 11 -25 -21 -5 -19 -3 -23 16 -23 17 0 19 -3 10 -13 -6 -8 -8
-17 -4 -21 4 -4 8 -25 8 -47 1 -22 7 -44 14 -49 16 -9 6 -30 -14 -30 -12 0
-25 -21 -25 -42 0 -6 6 -6 15 2 8 7 21 10 29 7 7 -3 26 8 42 24 16 16 34 27
41 25 7 -3 10 1 6 10 -3 8 4 25 16 38 12 13 24 39 27 57 3 19 7 45 9 59 3 14
9 52 15 84 6 33 7 63 2 68 -4 4 -23 1 -42 -9 -24 -12 -35 -13 -38 -5 -2 7 -8
9 -13 6 -6 -3 -16 0 -24 6 -12 10 -16 8 -24 -13 -11 -30 -91 -63 -91 -38 0 5
11 12 25 15 26 7 29 17 16 49 -6 17 -8 16 -29 -6z m198 -68 c9 -15 8 -24 -1
-35 -10 -13 -14 -12 -30 2 -11 10 -19 25 -19 36 0 25 36 23 50 -3z m-90 -188
c0 -12 -20 -25 -27 -18 -7 7 6 27 18 27 5 0 9 -4 9 -9z"/>
<path d="M4932 2913 c-29 -6 -37 -25 -22 -53 16 -30 -3 -50 -44 -47 -25 2 -32
-2 -34 -19 -2 -12 -13 -26 -25 -32 -16 -8 -18 -11 -6 -11 18 -1 29 -21 29 -49
0 -12 -8 -7 -25 15 -18 22 -31 30 -45 26 -11 -3 -20 -12 -20 -19 0 -8 -6 -14
-14 -14 -9 0 -12 -12 -11 -37 1 -21 3 -40 4 -43 2 -3 2 -29 1 -57 -1 -42 2
-53 14 -53 9 0 16 -8 16 -19 0 -11 3 -26 6 -35 4 -11 1 -16 -11 -16 -13 0 -15
-3 -7 -13 15 -18 3 -87 -14 -87 -8 0 -14 -11 -14 -25 0 -22 2 -24 19 -13 11 7
17 16 15 20 -3 5 2 16 11 25 14 14 18 14 26 2 7 -11 9 -9 9 7 0 27 7 33 31 27
13 -4 19 -14 19 -35 0 -16 5 -38 10 -48 11 -20 -3 -39 -15 -20 -3 5 -25 10
-49 10 -33 0 -47 -6 -64 -25 -12 -14 -22 -33 -22 -42 0 -12 8 -7 29 17 25 31
31 33 52 23 l24 -11 -33 -14 -33 -14 51 0 c33 1 50 5 50 14 0 6 7 12 15 12 8
0 15 6 15 14 0 16 27 29 41 20 5 -3 9 -13 9 -23 0 -24 42 -62 58 -52 8 5 12
24 11 47 -2 22 1 45 5 52 5 8 0 12 -13 12 -27 0 -27 16 -1 23 20 5 29 37 10
37 -5 0 -10 9 -10 20 0 11 5 20 10 20 6 0 10 5 10 10 0 12 -48 3 -67 -12 -6
-5 -10 -15 -7 -22 3 -8 -2 -16 -11 -20 -9 -3 -18 0 -21 8 -3 8 -17 17 -31 21
-24 6 -25 7 -8 25 10 11 27 22 38 26 15 5 16 8 6 14 -7 5 -21 4 -30 -1 -29
-15 -34 -11 -36 27 -1 30 1 34 18 29 20 -7 27 9 9 20 -5 3 -10 13 -10 22 0 13
8 14 40 9 25 -4 40 -2 40 4 0 5 7 10 15 10 8 0 15 6 15 13 0 7 9 23 20 35 21
23 17 57 -6 48 -19 -7 -18 13 2 35 13 15 14 24 5 50 -6 17 -8 35 -5 40 7 12
-6 99 -15 98 -3 -1 -16 -4 -29 -6z m38 -133 c0 -5 -4 -10 -10 -10 -5 0 -10 5
-10 10 0 6 5 10 10 10 6 0 10 -4 10 -10z m-83 -14 c-6 -16 12 -26 46 -26 21
-1 21 -2 -6 -25 -16 -14 -25 -30 -22 -36 6 -9 -21 -38 -36 -39 -4 0 -6 18 -6
39 0 23 -7 46 -17 56 -27 27 -18 45 22 45 17 0 22 -4 19 -14z m61 -116 c-2
-49 -27 -56 -26 -7 1 36 5 47 19 47 5 0 8 -18 7 -40z"/>
<path d="M178 2750 c-7 -24 -3 -38 8 -28 3 4 4 17 2 30 l-3 23 -7 -25z"/>
<path d="M235 2681 c5 -16 2 -18 -17 -14 -13 3 -29 10 -35 16 -10 7 -13 1 -13
-24 0 -32 2 -34 36 -33 40 1 49 8 58 47 5 23 3 27 -14 27 -16 0 -20 -4 -15
-19z"/>
<path d="M209 2602 c-22 -2 -25 -7 -21 -28 6 -33 38 -32 46 2 8 31 9 30 -25
26z"/>
<path d="M435 2590 c3 -5 8 -10 11 -10 2 0 4 5 4 10 0 6 -5 10 -11 10 -5 0 -7
-4 -4 -10z"/>
<path d="M372 2525 c-7 -14 -20 -25 -31 -25 -11 0 -26 -7 -35 -15 -8 -8 -23
-15 -34 -15 -11 0 -22 -9 -25 -20 -3 -12 -14 -20 -27 -20 -15 0 -20 5 -17 14
5 13 -12 26 -35 26 -6 0 -8 -20 -4 -52 3 -29 6 -66 6 -81 1 -26 3 -28 29 -22
24 5 30 2 34 -17 4 -13 18 -35 32 -50 26 -28 33 -62 14 -74 -15 -9 -29 14 -29
48 0 25 -2 27 -24 19 -17 -7 -27 -5 -39 7 -15 14 -16 12 -10 -24 9 -60 21
-111 22 -92 1 20 33 32 61 23 23 -7 27 -25 5 -25 -8 0 -15 -6 -15 -14 0 -22
-19 -30 -35 -16 -12 10 -15 9 -15 -8 0 -31 11 -52 26 -52 8 0 14 -7 14 -15 0
-8 9 -15 20 -15 13 0 20 -7 20 -20 0 -24 27 -37 43 -21 6 6 24 11 39 11 21 0
28 4 26 16 -2 10 2 19 8 21 13 4 27 -29 28 -65 1 -18 10 -27 41 -38 61 -21 70
-19 50 12 -9 14 -14 32 -11 40 3 8 -1 17 -9 20 -16 7 -20 30 -7 36 5 2 3 30
-4 63 -7 33 -13 71 -13 84 -1 13 -9 29 -18 36 -14 11 -15 15 -4 28 7 9 10 21
6 27 -10 15 -25 12 -25 -6 0 -10 -6 -14 -15 -10 -11 4 -15 -2 -15 -24 0 -32
-14 -40 -24 -14 -11 28 -7 42 13 49 11 3 21 16 23 28 2 15 9 21 21 19 9 -2 17
2 17 7 0 21 -21 21 -46 2 -37 -29 -44 -26 -37 12 l6 32 -22 -23 c-23 -23 -46
-21 -37 4 3 8 -1 14 -9 14 -8 0 -15 3 -16 8 -9 60 0 96 14 60 4 -10 6 -10 6 0
1 7 6 10 11 7 6 -3 13 0 16 9 3 8 25 17 54 21 47 6 48 7 52 46 2 26 -1 40 -10
44 -29 11 -49 4 -60 -20z m-142 -125 c0 -10 -23 -30 -36 -30 -13 0 -26 38 -18
51 5 9 54 -10 54 -21z m108 -189 c4 -38 -13 -65 -27 -42 -5 8 -9 29 -9 48 0
47 32 42 36 -6z m97 -21 c3 -5 1 -10 -4 -10 -6 0 -11 5 -11 10 0 6 2 10 4 10
3 0 8 -4 11 -10z m25 -53 c0 -24 -26 -51 -44 -44 -9 4 -16 2 -16 -4 0 -13 -52
-7 -56 6 -2 6 11 20 29 32 36 24 87 30 87 10z m-143 -67 c3 -13 14 -20 29 -20
32 0 39 -17 13 -31 -18 -9 -25 -9 -34 5 -7 8 -14 13 -17 11 -3 -3 -12 5 -21
19 -9 13 -13 26 -10 30 13 13 35 5 40 -14z"/>
<path d="M407 2404 c-14 -14 -6 -24 19 -24 16 0 24 5 22 13 -5 14 -31 21 -41
11z"/>
<path d="M2970 2336 c-5 -15 -10 -31 -10 -36 0 -15 -49 -23 -64 -11 -11 9 -15
9 -19 -1 -4 -10 -7 -10 -15 1 -7 9 -12 10 -16 2 -9 -14 -174 -15 -210 -2 -13
6 -26 17 -29 26 -4 12 -5 11 -3 -2 2 -29 50 -44 136 -44 44 0 80 -2 80 -4 0
-2 -13 -44 -30 -92 -16 -49 -36 -126 -44 -172 -12 -71 -19 -87 -43 -107 -38
-31 -41 -30 -45 14 l-3 37 -44 -62 c-24 -35 -48 -63 -52 -63 -13 0 -11 36 5
103 7 31 9 57 5 57 -5 0 -9 -4 -9 -10 0 -5 -10 -19 -22 -31 -13 -12 -17 -19
-10 -15 10 6 11 -8 6 -64 -7 -67 -6 -72 11 -68 11 1 34 23 53 48 38 50 52 60
52 36 0 -22 22 -20 52 4 l25 19 5 -107 c6 -115 30 -193 70 -229 19 -16 18 -12
-4 27 -33 58 -48 130 -48 235 0 81 2 89 51 192 29 60 62 140 74 178 20 62 26
70 50 73 23 3 27 1 21 -15 -4 -10 -21 -74 -36 -143 -36 -156 -60 -334 -60
-450 0 -55 -4 -91 -11 -96 -8 -5 -6 -10 5 -16 9 -5 16 -18 16 -28 0 -30 37
-63 57 -52 21 12 55 98 100 247 45 153 49 159 56 94 11 -92 40 -92 86 0 48 95
53 89 45 -60 -9 -169 6 -170 59 -6 21 64 42 117 47 117 5 0 11 -13 15 -29 14
-64 45 -62 100 5 21 25 45 44 56 44 11 0 35 17 54 37 19 21 36 35 39 32 3 -3
-1 -28 -9 -57 -7 -29 -19 -94 -25 -145 -7 -50 -28 -138 -47 -195 -35 -106 -38
-137 -13 -137 23 0 41 50 57 154 10 70 22 110 45 151 73 130 110 202 100 196
-6 -4 -35 -52 -64 -108 -31 -59 -54 -94 -56 -84 -5 22 27 200 44 249 14 41 10
46 -18 21 -14 -14 -20 -14 -33 -4 -13 11 -19 9 -36 -6 -12 -11 -29 -35 -40
-54 -27 -51 -104 -134 -116 -127 -7 4 -14 21 -18 37 -17 78 -62 36 -96 -90
-25 -91 -31 -66 -24 95 3 88 9 168 12 179 3 12 1 16 -6 12 -6 -4 -11 -27 -11
-52 0 -35 -10 -62 -46 -124 -26 -44 -52 -85 -60 -91 -19 -16 -28 27 -22 112 3
38 2 69 -3 69 -5 0 -34 -80 -65 -177 -58 -183 -108 -298 -124 -288 -46 28 -36
310 21 575 11 52 26 121 32 153 9 45 16 59 32 61 47 9 375 36 435 37 52 0 61
2 44 11 -16 7 -87 4 -254 -12 -127 -12 -234 -20 -236 -17 -3 2 0 17 6 32 6 15
8 30 6 33 -3 3 -10 -7 -16 -22z m-90 -80 c0 -44 -109 -293 -117 -269 -6 16 28
150 57 226 16 42 26 57 41 57 10 0 19 -6 19 -14z m674 -281 c6 -17 -48 -84
-59 -73 -8 8 32 88 44 88 5 0 11 -7 15 -15z m-58 -506 c-18 -43 -21 -12 -4 46
11 36 13 37 16 14 2 -15 -4 -42 -12 -60z"/>
<path d="M1619 2205 c-165 -60 -319 -272 -361 -494 -18 -101 20 -200 85 -216
23 -6 114 12 105 20 -2 3 -19 0 -38 -5 -106 -30 -151 109 -94 292 61 195 172
337 311 394 61 25 54 32 -8 9z"/>
<path d="M1713 2209 c38 -22 17 -88 -50 -161 -41 -44 -43 -48 -16 -29 34 23
86 91 97 127 9 30 -10 74 -31 74 -17 -1 -17 -1 0 -11z"/>
<path d="M4880 2201 c0 -32 11 -50 26 -44 8 3 14 18 14 34 0 22 -5 29 -20 29
-13 0 -20 -7 -20 -19z"/>
<path d="M4783 2139 c-15 -6 -21 -13 -16 -24 5 -15 8 -14 26 4 25 24 21 32
-10 20z"/>
<path d="M4680 2110 c0 -5 5 -10 11 -10 5 0 7 5 4 10 -3 6 -8 10 -11 10 -2 0
-4 -4 -4 -10z"/>
<path d="M4880 2114 c0 -19 46 -84 59 -84 12 0 12 3 3 12 -7 7 -12 27 -12 45
0 29 -3 33 -25 33 -14 0 -25 -3 -25 -6z"/>
<path d="M3107 2077 c-4 -10 -7 -28 -6 -40 0 -21 1 -21 10 2 5 14 8 32 7 40
-3 13 -5 13 -11 -2z"/>
<path d="M4696 2054 c-6 -16 12 -18 32 -5 11 6 9 9 -7 14 -12 3 -22 -1 -25 -9z"/>
<path d="M4857 2063 c-5 -4 -14 -8 -20 -8 -7 0 -11 -13 -10 -32 2 -18 -2 -35
-7 -38 -19 -12 -10 -25 14 -19 21 5 27 0 45 -42 12 -26 24 -44 28 -41 3 4 2
17 -4 30 -29 62 -33 75 -35 115 -2 24 -7 40 -11 35z"/>
<path d="M2045 1968 c-11 -152 -11 -313 0 -318 6 -3 20 29 33 70 51 165 66
191 78 130 7 -34 26 -53 45 -45 8 3 36 33 64 66 l50 60 22 -26 c38 -44 31 -79
-32 -147 -52 -56 -67 -89 -45 -103 6 -3 7 1 4 9 -10 27 75 140 93 123 11 -12
-16 -83 -41 -110 -14 -15 -22 -27 -17 -27 13 0 59 54 70 83 6 16 11 40 11 53
0 15 13 37 33 56 28 26 28 28 5 13 -27 -17 -27 -17 -42 17 -9 18 -25 45 -37
59 -21 27 -20 37 19 112 2 4 -1 7 -6 7 -12 0 -54 -88 -48 -99 6 -9 -77 -111
-100 -124 -9 -5 -16 -3 -19 5 -20 57 -26 68 -39 68 -21 0 -32 -19 -61 -107
-15 -46 -29 -83 -32 -83 -3 0 -2 79 2 175 8 185 1 238 -10 83z"/>
<path d="M1886 1999 c-4 -9 -26 -36 -49 -61 -23 -24 -83 -97 -133 -163 -101
-133 -147 -183 -207 -226 -52 -38 -38 -38 16 0 55 37 112 100 222 244 49 64
93 117 97 117 3 0 8 -12 10 -27 4 -34 40 -43 68 -18 23 20 45 81 41 110 -5 37
-19 38 -19 1 0 -44 -31 -110 -54 -114 -27 -5 -24 62 3 89 12 12 19 29 16 42
-3 18 -5 19 -11 6z"/>
<path d="M4640 1930 c-1 -3 -4 -31 -6 -62 -3 -48 -1 -58 12 -58 9 0 14 -7 12
-17 -3 -13 -13 -18 -36 -16 -28 1 -31 -1 -21 -14 10 -12 10 -16 -2 -24 -8 -5
-17 -9 -20 -9 -3 0 -13 -18 -22 -40 -15 -38 -15 -40 4 -40 10 0 19 -4 19 -10
0 -5 5 -10 11 -10 7 0 18 -8 25 -17 12 -17 13 -17 14 -1 0 9 6 21 13 25 8 4
24 28 38 51 13 24 36 50 50 58 15 7 31 26 37 42 10 28 9 29 -14 18 -13 -6 -24
-19 -24 -28 0 -11 -8 -18 -20 -18 -15 0 -20 7 -20 24 0 14 -5 28 -11 31 -6 4
-9 19 -7 35 1 15 -2 34 -8 41 -6 8 -14 21 -17 29 -3 8 -6 13 -7 10z"/>
<path d="M2459 1883 c-13 -16 -12 -17 4 -4 9 7 17 15 17 17 0 8 -8 3 -21 -13z"/>
<path d="M371 1863 c-13 -13 -33 -23 -45 -23 -15 0 -17 -3 -8 -12 18 -18 14
-31 -8 -25 -40 10 -42 -16 -6 -121 38 -112 41 -118 68 -149 14 -14 18 -28 13
-43 -6 -19 -4 -21 15 -15 21 7 22 5 17 -21 -5 -27 19 -94 34 -94 4 0 16 12 27
28 17 22 23 25 34 14 11 -11 10 -14 -1 -21 -9 -6 -11 -18 -6 -40 7 -33 -4 -41
-25 -16 -17 21 -24 12 -10 -14 6 -12 20 -21 32 -21 17 0 18 -3 8 -15 -14 -16
-6 -35 16 -35 8 0 14 -10 14 -24 0 -14 11 -38 25 -53 l24 -28 1 27 c0 15 5 30
11 34 6 3 9 14 6 24 -2 9 3 27 13 39 l16 23 18 -26 c18 -28 14 -46 -8 -46 -8
0 -19 -7 -26 -15 -8 -9 -9 -15 -2 -15 6 0 14 5 17 10 10 16 27 0 22 -21 -3
-12 0 -19 10 -19 8 0 11 -4 8 -10 -3 -5 0 -19 8 -30 l14 -21 6 21 c5 21 6 21
24 3 10 -10 30 -26 43 -35 24 -16 24 -18 7 -32 -16 -13 -16 -14 -1 -20 9 -4
15 -9 12 -11 -3 -3 15 -25 39 -50 25 -27 43 -54 43 -68 0 -13 5 -28 11 -34 6
-6 9 -19 7 -29 -4 -23 32 -59 68 -68 24 -6 26 -5 15 8 -8 9 -19 16 -27 16 -11
0 -34 56 -34 84 0 5 -7 14 -15 20 -23 17 -4 34 40 36 59 3 62 2 84 -21 11 -12
25 -18 31 -14 7 4 14 -1 17 -14 3 -12 9 -21 14 -21 5 0 9 -16 9 -36 0 -33 2
-36 22 -31 26 7 58 -17 58 -44 0 -13 -8 -17 -36 -17 -21 0 -38 6 -41 14 -4 11
-10 9 -25 -8 -20 -23 -70 -27 -94 -7 -8 6 -14 4 -18 -7 -8 -21 33 -55 54 -45
18 10 86 7 118 -3 21 -7 23 -5 17 13 -4 15 -2 21 8 21 9 0 18 -6 21 -12 3 -10
9 -8 19 5 8 9 22 17 31 17 13 0 17 7 15 28 -2 15 0 32 4 39 4 6 3 14 -3 18 -5
3 -10 15 -10 25 0 24 -45 38 -71 21 -25 -15 -29 -14 -29 9 0 10 -13 35 -30 53
-16 19 -27 37 -24 40 4 3 4 14 0 23 -6 15 -8 15 -29 1 -20 -13 -27 -13 -48 -1
-31 17 -39 17 -39 -1 0 -8 -9 -15 -20 -15 -23 0 -26 26 -6 53 16 21 40 22 60
1 15 -15 36 -12 36 5 0 16 -83 102 -94 98 -6 -2 -19 0 -28 4 -13 7 -20 4 -28
-12 -9 -16 -14 -18 -26 -8 -21 17 -17 34 11 49 20 11 27 11 40 0 30 -25 24 -4
-10 33 -19 20 -43 37 -54 37 -25 0 -28 17 -5 22 14 3 14 6 -5 28 -15 19 -20
21 -21 9 0 -22 -104 -37 -125 -19 -21 17 -7 33 22 26 43 -11 105 39 72 59 -5
4 -15 19 -20 33 l-10 27 -35 -38 c-26 -28 -39 -35 -48 -28 -7 6 -22 8 -34 5
-26 -7 -82 16 -82 33 0 7 7 13 15 13 8 0 15 9 15 20 0 14 7 20 21 20 19 0 21
-4 15 -31 -6 -29 -5 -30 27 -27 27 2 33 8 35 31 2 16 -2 35 -9 43 -9 11 -8 14
5 14 22 0 20 26 -9 88 -17 38 -30 52 -45 52 -22 0 -28 26 -7 32 9 2 3 26 -20
83 -23 57 -33 72 -33 53 0 -23 -4 -28 -26 -28 -23 0 -26 3 -22 29 3 21 1 28
-9 24 -7 -3 -13 2 -13 10 0 9 -16 21 -35 28 -19 7 -35 18 -35 25 0 26 -25 30
-49 7z m47 -40 c-2 -10 -10 -18 -18 -18 -8 0 -16 8 -18 18 -2 12 3 17 18 17
15 0 20 -5 18 -17z m22 -70 c0 -26 -16 -47 -29 -39 -14 9 -14 29 1 44 17 17
28 15 28 -5z m20 -52 c0 -14 5 -18 20 -14 22 6 24 1 11 -25 -5 -9 -12 -25 -15
-35 -3 -10 -12 -17 -19 -15 -15 6 -32 70 -24 92 9 22 27 20 27 -3z m-80 -91
c25 -25 25 -30 1 -30 -22 0 -45 25 -36 40 9 14 12 13 35 -10z m165 10 c3 -6
-1 -13 -10 -16 -19 -8 -30 0 -20 15 8 14 22 14 30 1z m-59 -146 c-3 -8 -1 -14
4 -14 15 0 12 -18 -7 -40 -18 -21 -43 -27 -43 -10 0 6 5 10 11 10 8 0 7 5 -1
15 -18 21 2 67 25 59 9 -4 14 -13 11 -20z m134 12 c0 -16 -18 -31 -27 -22 -8
8 5 36 17 36 5 0 10 -6 10 -14z m50 4 c0 -5 -4 -10 -10 -10 -5 0 -10 5 -10 10
0 6 5 10 10 10 6 0 10 -4 10 -10z m160 -384 c0 -14 -5 -28 -10 -31 -13 -8 -24
20 -16 40 9 24 26 17 26 -9z m400 -361 c0 -8 -7 -15 -15 -15 -16 0 -20 12 -8
23 11 12 23 8 23 -8z"/>
<path d="M4826 1781 c-4 -7 -5 -15 -2 -18 9 -9 19 4 14 18 -4 11 -6 11 -12 0z"/>
<path d="M4792 1703 c-19 -4 -21 -7 -11 -19 18 -22 59 -18 59 6 0 20 -5 21
-48 13z"/>
<path d="M4692 1620 c-6 -11 -12 -31 -12 -45 0 -27 -31 -48 -38 -27 -6 20 -20
3 -15 -18 4 -15 9 -17 23 -10 26 14 30 13 30 -10 0 -11 5 -20 10 -20 7 0 8 13
4 35 -5 28 -3 35 9 35 9 0 18 -4 21 -9 3 -5 22 -11 42 -13 28 -3 38 0 46 16 8
15 8 21 -1 24 -6 2 -11 10 -11 18 0 14 -56 44 -82 44 -7 0 -19 -9 -26 -20z"/>
<path d="M4505 1571 c-14 -28 -22 -57 -19 -65 4 -10 1 -16 -7 -16 -16 -1 -133
-200 -118 -200 5 0 9 -7 9 -15 0 -18 5 -19 30 -3 10 7 22 9 25 6 10 -10 -14
-48 -31 -48 -25 0 -54 20 -54 37 0 14 -2 14 -14 -2 -17 -23 -12 -33 21 -46 13
-5 22 -13 18 -19 -3 -5 -12 -7 -20 -3 -8 3 -15 0 -15 -6 0 -6 -15 -11 -33 -11
-27 0 -40 -8 -64 -38 -32 -39 -32 -53 -1 -65 12 -4 18 0 20 16 2 17 10 22 30
22 23 -1 26 3 22 21 -4 16 0 23 18 27 12 4 27 2 32 -3 6 -6 23 -10 38 -10 18
0 28 -5 28 -15 0 -11 -9 -14 -31 -13 -44 4 -46 -15 -4 -28 28 -9 35 -8 35 2 0
8 3 14 7 14 8 0 63 -61 63 -70 0 -4 -17 -6 -37 -5 -29 1 -38 5 -37 18 2 19
-14 22 -36 6 -11 -8 -12 -12 -2 -16 17 -7 15 -33 -3 -33 -8 0 -15 8 -16 18 0
14 -2 14 -8 -3 -7 -15 -3 -23 15 -33 20 -10 29 -10 53 3 37 19 39 19 43 -2 2
-12 10 -7 31 21 27 34 28 39 13 55 -9 10 -16 21 -16 24 0 11 38 8 45 -3 9 -15
25 -2 19 14 -3 8 -1 17 4 20 6 3 8 16 4 28 -4 18 -2 20 15 16 15 -4 24 1 32
19 26 58 0 103 -60 103 -22 0 -38 4 -35 9 3 5 -1 12 -10 15 -25 10 -6 26 31
26 22 0 35 6 41 18 6 15 6 43 -1 50 -7 7 -35 -12 -35 -24 0 -8 -7 -14 -15 -14
-18 0 -19 12 -2 29 10 11 6 12 -23 7 -48 -8 -66 4 -49 33 16 25 32 27 49 6 12
-14 15 -13 35 5 12 11 29 20 38 20 12 0 17 9 17 30 0 20 -5 30 -15 30 -9 0
-25 9 -37 20 -20 18 -20 21 -5 38 19 21 22 32 7 32 -5 0 -21 -22 -35 -49z
m-27 -295 c3 -12 -1 -17 -10 -14 -7 3 -15 13 -16 22 -3 12 1 17 10 14 7 -3 15
-13 16 -22z m75 -23 c8 -7 -11 -33 -24 -33 -5 0 -9 9 -9 20 0 19 20 27 33 13z
m-113 -31 c0 -13 -25 -62 -31 -62 -4 0 -13 7 -20 16 -11 14 -10 19 10 35 24
20 41 24 41 11z m66 -2 c18 -7 24 -14 17 -21 -13 -13 -67 7 -58 21 8 12 8 12
41 0z m84 -11 c0 -5 -10 -9 -21 -9 -18 0 -19 2 -9 15 12 15 30 12 30 -6z
m-111 -18 c9 -6 10 -11 2 -15 -13 -8 -31 1 -31 15 0 11 11 11 29 0z m71 -19
c0 -13 -12 -22 -22 -16 -10 6 -1 24 13 24 5 0 9 -4 9 -8z"/>
<path d="M4611 1484 c0 -11 3 -14 6 -6 3 7 2 16 -1 19 -3 4 -6 -2 -5 -13z"/>
<path d="M4717 1480 c-5 -18 -10 -21 -35 -16 -20 5 -33 2 -42 -9 -17 -21 -12
-24 41 -28 24 -1 49 -6 56 -10 13 -8 17 -3 33 37 9 25 8 27 -9 21 -13 -4 -23
0 -29 11 -8 14 -10 14 -15 -6z"/>
<path d="M4657 1403 c-9 -18 -6 -72 3 -78 6 -4 18 -1 26 6 12 10 12 14 2 20
-10 6 -8 11 6 22 19 14 19 15 -2 26 -24 13 -30 14 -35 4z"/>
<path d="M4610 1385 c-1 -5 -2 -14 -1 -19 1 -5 -2 -12 -8 -15 -6 -4 -6 -12 -1
-21 14 -23 27 1 19 35 -3 17 -8 26 -9 20z"/>
<path d="M3337 1352 c-16 -17 -15 -24 22 -108 61 -143 117 -314 102 -314 -17
0 -178 121 -254 191 -72 66 -80 71 -103 61 -13 -7 -24 -16 -24 -22 0 -8 196
-410 205 -418 3 -3 43 15 53 23 2 2 -32 68 -76 147 -101 183 -104 188 -98 188
3 0 36 -27 73 -61 37 -33 108 -89 156 -124 86 -62 90 -64 113 -48 13 8 24 19
24 24 0 19 -64 205 -96 281 -19 44 -34 84 -34 89 0 4 57 -52 126 -126 69 -74
129 -135 133 -135 5 0 16 9 27 21 19 21 18 21 -151 184 -94 90 -173 164 -176
165 -3 0 -13 -8 -22 -18z"/>
<path d="M1740 1158 c-85 -94 -156 -174 -158 -178 -4 -11 121 -108 162 -125
102 -43 192 11 260 155 25 53 31 78 31 134 l0 69 -65 58 c-35 33 -67 59 -70
58 -3 0 -75 -77 -160 -171z m234 53 c28 -31 23 -98 -13 -169 -57 -112 -113
-158 -182 -149 -44 6 -123 63 -115 83 3 7 58 76 122 153 l118 140 25 -19 c14
-10 34 -27 45 -39z"/>
<path d="M2088 928 c-84 -187 -93 -215 -80 -225 33 -27 47 -15 77 67 17 44 35
80 42 80 7 0 36 -46 64 -102 60 -115 78 -138 114 -138 14 0 25 2 25 4 0 2 -25
43 -55 91 -30 49 -55 91 -55 95 0 4 15 11 34 14 73 14 116 75 116 165 0 65
-36 109 -116 140 -31 11 -59 21 -64 21 -4 0 -50 -96 -102 -212z m210 119 c23
-24 30 -71 16 -113 -16 -48 -47 -74 -86 -74 -31 0 -88 25 -88 39 0 7 19 60 59
164 l11 27 37 -15 c21 -9 44 -22 51 -28z"/>
<path d="M2874 1093 c-20 -4 -22 -13 -28 -111 -6 -92 -16 -157 -53 -359 -5
-30 -3 -33 20 -33 33 0 45 21 53 94 4 31 12 62 18 70 10 12 146 52 150 44 1
-2 24 -30 51 -63 27 -33 50 -61 51 -63 2 -3 43 16 53 24 2 2 -34 48 -80 103
-45 55 -108 138 -138 185 -77 116 -74 112 -97 109z m80 -167 c26 -43 44 -82
39 -86 -13 -12 -97 -30 -104 -22 -4 4 -5 51 -2 105 3 54 9 95 13 90 4 -4 28
-43 54 -87z"/>
<path d="M616 1079 c2 -4 15 -9 29 -11 20 -4 23 -2 14 8 -10 13 -51 16 -43 3z"/>
<path d="M4153 1048 c-11 -13 -18 -29 -16 -35 3 -8 -3 -13 -13 -13 -24 0 -104
-79 -97 -96 2 -7 0 -21 -6 -32 -8 -16 -7 -21 6 -27 15 -5 15 -7 3 -15 -8 -6
-26 -10 -39 -10 -18 0 -22 4 -18 20 7 26 -2 25 -43 -2 -20 -14 -34 -32 -35
-46 -3 -35 -28 -56 -52 -43 -22 11 -43 -2 -43 -27 0 -10 -7 -13 -21 -9 -15 4
-23 0 -26 -14 -4 -13 -13 -19 -25 -17 -14 2 -24 -6 -33 -29 -12 -29 -12 -33 0
-33 10 0 15 -11 15 -34 0 -29 -5 -36 -35 -50 -27 -13 -38 -14 -53 -5 -11 7
-27 9 -38 4 -13 -5 -15 -9 -6 -12 10 -4 10 -9 -3 -23 -15 -17 -15 -19 5 -25
28 -9 20 -29 -12 -33 -27 -3 -46 24 -29 41 6 6 2 20 -11 37 -11 16 -17 33 -14
39 4 6 3 11 -2 11 -5 0 -12 -13 -15 -29 -4 -18 -14 -32 -27 -36 -11 -3 -20
-13 -20 -21 0 -21 -16 -17 -37 9 -10 12 -26 21 -35 19 -22 -4 -23 -18 -3 -26
17 -6 20 -57 4 -73 -7 -7 0 -9 25 -6 24 2 36 -1 36 -8 0 -7 6 -20 14 -28 21
-25 29 -81 11 -81 -20 0 -19 -23 3 -42 15 -14 22 -14 70 8 49 21 52 25 42 44
-22 41 43 75 88 46 7 -4 19 -3 27 4 8 6 19 9 24 6 5 -4 13 -1 16 4 4 6 18 16
32 21 14 5 75 41 134 80 97 64 107 73 96 89 -15 26 1 40 18 16 13 -18 19 -15
102 54 106 88 173 151 173 163 0 4 -10 7 -22 5 -17 -2 -23 2 -23 17 0 21 28
32 83 34 24 1 32 6 32 19 0 23 19 42 41 42 9 0 26 16 38 35 20 34 20 35 1 35
-11 0 -20 -7 -20 -15 0 -18 -12 -19 -28 -3 -9 9 -13 7 -18 -5 -15 -39 -64 -3
-56 41 2 6 -6 12 -17 12 -11 0 -25 2 -33 5 -8 3 -18 -6 -25 -25 -9 -24 -17
-30 -42 -30 -33 0 -44 26 -16 36 9 4 15 11 14 18 -3 27 2 38 16 32 8 -3 15 -1
15 3 0 5 -7 11 -15 15 -8 3 -15 1 -15 -4 0 -6 -7 -10 -16 -10 -10 0 -14 6 -10
15 7 21 3 19 -21 -7z m161 -104 c4 -9 4 -19 1 -22 -6 -6 -35 18 -35 29 0 16
28 10 34 -7z m-104 -24 c0 -5 -4 -10 -10 -10 -5 0 -10 5 -10 10 0 6 5 10 10
10 6 0 10 -4 10 -10z m78 -28 c2 -7 -6 -12 -17 -12 -21 0 -27 11 -14 24 9 9
26 2 31 -12z m-108 -2 c0 -5 -7 -10 -15 -10 -8 0 -15 5 -15 10 0 6 7 10 15 10
8 0 15 -4 15 -10z m-70 -20 c0 -5 -7 -10 -15 -10 -8 0 -15 5 -15 10 0 6 7 10
15 10 8 0 15 -4 15 -10z m120 -80 c0 -5 -4 -10 -10 -10 -5 0 -10 5 -10 10 0 6
5 10 10 10 6 0 10 -4 10 -10z m-120 -8 c0 -13 -12 -22 -22 -16 -10 6 -1 24 13
24 5 0 9 -4 9 -8z m-138 -114 c-13 -13 -44 2 -38 19 3 8 6 20 6 26 1 7 10 1
21 -12 11 -14 16 -28 11 -33z m-148 16 c9 -23 8 -24 -19 -24 -27 0 -32 9 -13
28 16 16 25 15 32 -4z m296 -40 c0 -8 -7 -14 -15 -14 -15 0 -21 21 -9 33 10 9
24 -2 24 -19z m-76 -7 c8 -13 7 -20 -4 -27 -24 -16 -30 -12 -30 21 0 33 16 36
34 6z m-204 -57 c0 -19 -5 -30 -14 -30 -19 0 -29 30 -15 46 18 22 29 16 29
-16z m43 -45 c-5 -16 -33 -21 -33 -7 0 13 22 32 31 26 5 -2 6 -11 2 -19z m87
15 c0 -5 -7 -10 -15 -10 -9 0 -15 -9 -15 -21 0 -12 -5 -19 -12 -17 -22 8 -19
33 4 44 30 15 38 16 38 4z m-270 -55 c0 -18 -5 -25 -18 -25 -28 0 -34 11 -15
32 22 25 33 23 33 -7z m50 10 c14 -17 5 -36 -15 -28 -16 6 -21 43 -6 43 5 0
14 -7 21 -15z m48 4 c-2 -6 -8 -10 -13 -10 -5 0 -11 4 -13 10 -2 6 4 11 13 11
9 0 15 -5 13 -11z m-298 -44 c0 -15 -6 -25 -14 -25 -16 0 -25 19 -18 38 8 22
32 13 32 -13z m378 7 c2 -7 -3 -12 -12 -12 -9 0 -16 7 -16 16 0 17 22 14 28
-4z m-178 -32 c0 -11 -3 -20 -7 -20 -20 0 -53 13 -53 20 0 7 10 11 53 19 4 0
7 -8 7 -19z m67 -7 c11 -22 10 -28 -5 -39 -9 -7 -20 -14 -24 -14 -12 0 -9 25
4 38 9 9 9 12 0 12 -6 0 -9 7 -6 15 9 22 17 18 31 -12z m-47 -44 c0 -5 -7 -9
-15 -9 -15 0 -20 12 -9 23 8 8 24 -1 24 -14z m-182 -38 c3 -8 -1 -12 -9 -9 -7
2 -15 10 -17 17 -3 8 1 12 9 9 7 -2 15 -10 17 -17z m-18 -57 c0 -8 -5 -12 -10
-9 -6 4 -8 11 -5 16 9 14 15 11 15 -7z"/>
<path d="M683 1045 l-22 -15 41 -55 c22 -30 45 -55 49 -55 5 0 13 8 18 19 12
21 -8 44 -49 56 -34 11 -42 26 -23 47 20 22 15 23 -14 3z"/>
<path d="M2490 1058 c-1 -2 -13 -106 -29 -233 -24 -206 -26 -231 -12 -237 9
-4 76 -7 149 -7 133 -1 133 -1 130 22 -3 21 -7 22 -110 22 -58 0 -109 2 -112
5 -3 3 -2 44 2 90 l7 85 60 1 c82 0 85 1 85 24 0 17 -8 19 -67 22 l-68 3 -3
47 c-2 25 1 61 5 78 l9 33 74 1 c68 1 75 3 75 21 0 18 -8 20 -97 23 -54 1 -98
1 -98 0z"/>
<path d="M930 881 c0 -6 5 -13 10 -16 6 -3 10 1 10 9 0 9 -4 16 -10 16 -5 0
-10 -4 -10 -9z"/>
<path d="M800 860 c0 -5 5 -10 10 -10 6 0 10 5 10 10 0 6 -4 10 -10 10 -5 0
-10 -4 -10 -10z"/>
<path d="M973 849 c12 -7 16 -17 12 -30 -4 -11 -2 -19 4 -19 6 0 11 5 11 10 0
6 11 10 24 10 20 0 36 16 36 36 0 2 -24 4 -52 4 -42 -1 -49 -3 -35 -11z"/>
<path d="M1048 773 c7 -3 16 -2 19 1 4 3 -2 6 -13 5 -11 0 -14 -3 -6 -6z"/>
<path d="M1370 713 c-9 -14 -12 -15 -17 -4 -4 10 -9 5 -17 -15 -14 -32 -1 -74
23 -74 9 0 12 -8 9 -25 -3 -13 0 -26 6 -29 7 -3 6 -8 -4 -15 -21 -15 -33 -14
-27 3 9 22 -21 28 -49 10 -13 -9 -24 -20 -24 -24 0 -14 30 -40 46 -40 19 0 18
-24 -1 -40 -12 -10 -13 -16 -5 -24 8 -8 14 -7 21 4 9 13 11 13 16 0 4 -10 10
-4 18 19 12 37 35 54 35 27 0 -9 7 -16 15 -16 8 0 15 5 15 11 0 7 9 9 21 6 15
-4 19 -2 15 10 -3 8 -6 19 -6 24 0 5 -11 4 -25 -1 -16 -6 -25 -6 -25 1 0 5 7
12 15 15 10 4 14 18 12 46 -3 43 -18 58 -51 50 -20 -5 -20 -4 -5 14 25 29 31
60 15 73 -11 10 -17 8 -26 -6z"/>
<path d="M1138 636 c-27 -11 -48 -26 -48 -33 0 -18 10 -16 26 5 10 14 16 15
32 5 24 -14 45 -2 40 24 -3 19 -4 19 -50 -1z"/>
<path d="M1480 645 c0 -7 -8 -19 -17 -24 -10 -6 -12 -11 -5 -11 6 0 12 -10 13
-22 1 -21 2 -21 12 5 17 42 33 32 43 -25 9 -50 10 -52 22 -30 10 17 11 27 2
37 -13 16 1 28 24 19 31 -12 15 7 -31 36 -53 34 -63 36 -63 15z"/>
<path d="M3625 630 c-8 -13 4 -32 16 -25 12 8 12 35 0 35 -6 0 -13 -4 -16 -10z"/>
<path d="M1220 620 c0 -17 49 -35 61 -23 6 6 8 16 5 22 -9 14 -66 14 -66 1z"/>
<path d="M3580 610 c-9 -6 -10 -10 -3 -10 6 0 15 5 18 10 8 12 4 12 -15 0z"/>
<path d="M1655 543 c11 -20 11 -30 3 -41 -13 -15 -18 -63 -7 -56 7 4 22 -30
24 -51 0 -12 9 -12 50 -1 52 15 76 46 35 46 -12 0 -24 10 -30 24 -5 13 -14 27
-19 31 -16 9 -13 25 4 25 26 0 16 16 -20 33 -49 23 -56 21 -40 -10z m65 -88
c10 -13 9 -15 -8 -15 -22 0 -36 13 -25 24 10 10 20 7 33 -9z m-10 -35 c0 -5
-7 -10 -16 -10 -8 0 -12 5 -9 10 3 6 10 10 16 10 5 0 9 -4 9 -10z"/>
<path d="M1217 516 c-5 -13 21 -46 35 -46 10 0 -3 39 -17 50 -9 8 -14 7 -18
-4z"/>
<path d="M3290 480 c-13 -8 -12 -10 3 -10 9 0 17 5 17 10 0 12 -1 12 -20 0z"/>
<path d="M1412 444 c-11 -11 -11 -18 -2 -29 6 -8 9 -19 5 -25 -6 -10 20 -39
37 -40 4 0 12 9 18 20 9 16 8 18 -5 14 -18 -7 -20 17 -2 35 6 7 8 12 2 11 -22
-5 -36 1 -29 11 3 6 15 9 25 6 11 -3 17 -1 13 4 -8 14 -48 10 -62 -7z"/>
<path d="M3229 447 c6 -8 8 -33 4 -64 -5 -48 -7 -51 -32 -49 -16 2 -27 10 -30
22 -2 10 0 16 4 12 9 -9 35 9 35 24 0 5 -10 8 -22 6 -18 -2 -24 3 -26 20 -3
16 -8 22 -19 18 -8 -3 -25 -9 -38 -12 -13 -3 -26 -13 -29 -22 -20 -56 -23 -72
-15 -78 5 -3 9 2 9 10 0 25 19 19 30 -9 5 -14 16 -25 24 -25 7 0 16 -7 19 -14
5 -12 13 -13 38 -6 40 12 67 -2 75 -38 9 -38 23 -52 50 -52 20 0 22 3 17 35
-5 31 -3 36 22 45 32 12 45 6 45 -21 0 -38 33 -15 37 26 1 11 5 33 9 48 5 21
2 31 -12 42 -10 7 -22 12 -25 9 -11 -6 -61 54 -55 65 11 17 -27 13 -53 -6 -23
-16 -25 -15 -42 5 -9 12 -20 22 -24 22 -4 0 -3 -6 4 -13z m127 -90 c10 -19 12
-33 6 -39 -7 -7 -12 -3 -17 11 -3 12 -15 26 -25 31 -15 8 -21 6 -30 -10 -13
-25 -30 -26 -30 -2 0 26 19 41 52 40 22 -1 33 -9 44 -31z m62 -9 c-3 -7 -11
-13 -18 -13 -7 0 -15 6 -17 13 -3 7 4 12 17 12 13 0 20 -5 18 -12z m-273 -17
c3 -5 1 -12 -5 -16 -5 -3 -10 1 -10 9 0 18 6 21 15 7z m133 -28 c6 -19 -35
-16 -42 3 -4 11 0 15 16 12 12 -2 23 -9 26 -15z m41 -39 c-16 -19 -29 -17 -29
4 0 26 11 34 27 21 10 -9 10 -15 2 -25z"/>
<path d="M1826 416 c-9 -19 -23 -36 -31 -40 -8 -3 -15 -10 -15 -16 0 -17 21
-11 41 13 l20 22 -3 -25 c-2 -14 -9 -24 -16 -22 -6 1 -12 -2 -12 -8 0 -5 -6
-7 -14 -4 -8 3 -17 1 -21 -5 -3 -6 -19 -11 -34 -11 -28 0 -49 -15 -50 -35 0
-5 -10 -12 -23 -15 -16 -4 -19 -8 -10 -14 6 -4 16 -5 21 -2 5 4 11 2 13 -3 1
-6 21 -17 43 -26 27 -11 36 -13 28 -4 -32 32 -3 78 50 79 32 0 37 -25 7 -35
-11 -4 -20 -15 -20 -26 0 -16 5 -19 20 -14 15 5 20 2 20 -11 0 -13 -6 -15 -32
-10 -18 4 -28 3 -23 -2 18 -16 90 -31 114 -25 16 4 26 1 33 -11 8 -15 12 -14
30 9 11 14 24 23 29 19 5 -3 8 0 7 8 -2 9 7 12 29 10 28 -3 32 0 38 27 4 19
13 31 23 32 14 0 13 2 -2 8 -18 7 -16 9 13 24 38 19 51 15 51 -15 0 -21 0 -21
20 2 24 27 25 40 6 40 -8 0 -27 11 -42 25 -29 27 -44 32 -44 14 0 -7 -8 -18
-17 -26 -17 -14 -17 -14 -1 -9 10 3 20 1 24 -5 3 -6 -2 -13 -13 -15 -10 -3
-23 -15 -28 -27 -11 -25 -30 -25 -30 1 0 9 -3 22 -8 29 -9 14 -65 43 -84 43
-7 0 -13 9 -13 20 0 11 5 20 10 20 6 0 10 5 10 10 0 14 -27 12 -33 -2 -4 -10
-6 -10 -6 0 -1 6 -7 12 -15 12 -8 0 -16 7 -20 15 -9 24 -23 18 -40 -19z m114
-97 c7 -11 9 -23 7 -26 -9 -9 -47 17 -47 32 0 22 28 18 40 -6z m-190 -19 c0
-5 -4 -10 -10 -10 -5 0 -10 5 -10 10 0 6 5 10 10 10 6 0 10 -4 10 -10z m240
-29 c7 -13 7 -22 0 -26 -15 -9 -30 4 -30 26 0 25 16 25 30 0z"/>
<path d="M1960 436 c0 -8 9 -20 21 -26 18 -10 20 -9 17 12 -3 26 -38 39 -38
14z"/>
<path d="M1370 396 c0 -2 7 -7 16 -10 8 -3 12 -2 9 4 -6 10 -25 14 -25 6z"/>
<path d="M2235 370 c-3 -5 1 -10 9 -10 9 0 16 5 16 10 0 6 -4 10 -9 10 -6 0
-13 -4 -16 -10z"/>
<path d="M2295 348 c-8 -28 -14 -33 -37 -31 -21 1 -28 -3 -28 -16 0 -11 9 -21
21 -24 22 -6 21 -34 -1 -29 -20 5 -60 -27 -60 -48 0 -17 4 -17 33 -8 17 5 42
11 54 12 30 2 37 12 35 49 -3 42 28 77 68 77 17 0 33 7 39 18 8 14 12 15 22 5
7 -7 18 -13 24 -13 5 0 1 7 -9 15 -27 20 -96 20 -96 0 0 -21 -17 -19 -30 5
-15 28 -24 25 -35 -12z"/>
<path d="M2793 373 c-29 -2 -53 -8 -53 -13 0 -5 6 -7 14 -4 8 3 17 1 21 -5 3
-6 1 -11 -4 -11 -6 0 -11 -13 -11 -30 0 -21 5 -30 16 -30 9 0 14 -8 13 -17 -5
-50 1 -74 19 -72 44 4 64 -2 69 -22 4 -12 11 -18 20 -15 19 8 39 -4 24 -13 -7
-5 -5 -15 6 -31 16 -22 17 -22 24 -4 4 10 5 30 2 43 -5 18 -2 23 8 19 8 -3 21
-1 29 6 14 10 40 50 40 59 0 7 -54 -4 -78 -16 -18 -8 -27 -8 -40 1 -9 7 -24
15 -33 18 -12 4 -17 17 -16 42 1 21 -3 45 -7 55 -6 12 -4 17 8 17 9 0 16 7 16
15 0 8 -8 14 -17 13 -10 -1 -42 -3 -70 -5z m26 -22 c9 -6 10 -11 2 -15 -6 -4
-9 -12 -6 -17 4 -5 1 -9 -4 -9 -6 0 -11 4 -11 9 0 5 -3 16 -6 25 -7 18 4 20
25 7z m9 -69 c3 -9 -2 -13 -14 -10 -9 1 -19 9 -22 16 -3 9 2 13 14 10 9 -1 19
-9 22 -16z"/>
<path d="M1635 340 c3 -5 10 -10 16 -10 5 0 9 5 9 10 0 6 -7 10 -16 10 -8 0
-12 -4 -9 -10z"/>
<path d="M2640 310 c0 -12 4 -19 9 -15 6 3 15 -4 22 -17 9 -16 9 -23 0 -26
-20 -7 31 -39 55 -34 13 2 22 8 19 12 -2 4 -16 5 -30 2 -30 -5 -33 10 -5 38
11 11 17 26 14 35 -7 17 -24 20 -24 5 0 -6 -13 -4 -30 5 -29 15 -30 15 -30 -5z"/>
<path d="M2950 319 c0 -7 -10 -9 -24 -7 -16 3 -23 1 -19 -7 2 -7 19 -16 36
-19 24 -5 35 -2 44 11 19 25 16 33 -12 33 -14 0 -25 -5 -25 -11z"/>
<path d="M1610 310 c-13 -8 -12 -10 3 -10 9 0 17 5 17 10 0 12 -1 12 -20 0z"/>
<path d="M2448 306 c-18 -17 -12 -46 12 -61 5 -3 7 -20 4 -38 -5 -31 -5 -31
11 -12 9 11 15 32 12 47 -2 16 2 29 10 32 7 3 13 12 13 21 0 8 7 15 15 15 8 0
15 -4 15 -10 0 -5 8 -10 18 -10 15 1 15 2 -2 15 -25 19 -55 19 -62 0 -8 -20
-22 -19 -26 2 -3 15 -4 15 -20 -1z"/>
<path d="M3020 274 c0 -8 5 -12 10 -9 6 4 8 11 5 16 -9 14 -15 11 -15 -7z"/>
<path d="M2175 271 c-7 -12 12 -24 25 -16 11 7 4 25 -10 25 -5 0 -11 -4 -15
-9z"/>
<path d="M2636 253 c-4 -5 -26 -13 -49 -20 l-42 -11 36 -1 c24 -1 42 6 54 19
17 18 18 29 1 13z"/>
<path d="M3104 190 c8 -42 22 -51 66 -44 47 9 70 22 70 40 0 13 -5 12 -29 -5
-38 -27 -51 -26 -51 2 0 13 -6 24 -12 24 -7 0 -22 4 -32 8 -17 8 -19 5 -12
-25z"/>
<path d="M3365 210 c-3 -5 -1 -10 4 -10 6 0 11 5 11 10 0 6 -2 10 -4 10 -3 0
-8 -4 -11 -10z"/>
<path d="M2070 193 c-14 -2 -32 -7 -40 -10 -8 -3 -21 -7 -29 -9 -8 -1 -18 -8
-22 -15 -6 -10 10 -18 59 -31 85 -22 89 -22 67 2 -16 18 -16 20 -2 20 10 0 17
4 17 9 0 16 -12 41 -19 40 -3 -1 -17 -4 -31 -6z"/>
<path d="M2720 161 c16 -30 25 -32 26 -5 1 18 -3 24 -17 24 -16 0 -18 -3 -9
-19z"/>
<path d="M2276 161 c-4 -5 -2 -12 3 -15 5 -4 12 -2 15 3 4 5 2 12 -3 15 -5 4
-12 2 -15 -3z"/>
<path d="M2157 143 c11 -31 15 -35 23 -22 11 16 1 39 -16 39 -8 0 -11 -6 -7
-17z"/>
<path d="M2807 132 c-16 -7 -16 -9 -1 -30 12 -17 24 -22 47 -20 35 3 50 28 18
28 -12 0 -24 7 -27 15 -7 16 -10 17 -37 7z"/>
<path d="M2205 120 c4 -6 11 -8 16 -5 14 9 11 15 -7 15 -8 0 -12 -5 -9 -10z"/>
<path d="M2405 110 c3 -5 8 -10 11 -10 2 0 4 5 4 10 0 6 -5 10 -11 10 -5 0 -7
-4 -4 -10z"/>
<path d="M2750 116 c0 -2 7 -9 15 -16 12 -10 15 -10 15 4 0 9 -7 16 -15 16 -8
0 -15 -2 -15 -4z"/>
</g>
</svg>
